<?xml version="1.0" encoding="UTF-8" standalone="no"?>
<!-- Created with Inkscape (http://www.inkscape.org/) -->

<svg
   width="100mm"
   height="100mm"
   viewBox="0 0 100 100"
   version="1.1"
   id="svg5"
   inkscape:version="1.3.2 (091e20e, 2023-11-25, custom)"
   sodipodi:docname="Icon_1_4.svg"
   inkscape:export-filename="icon.svg.2023_07_02_22_50_48.0.png"
   inkscape:export-xdpi="96"
   inkscape:export-ydpi="96"
   xml:space="preserve"
   xmlns:inkscape="http://www.inkscape.org/namespaces/inkscape"
   xmlns:sodipodi="http://sodipodi.sourceforge.net/DTD/sodipodi-0.dtd"
   xmlns="http://www.w3.org/2000/svg"
   xmlns:svg="http://www.w3.org/2000/svg"><sodipodi:namedview
     id="namedview7"
     pagecolor="#ffffff"
     bordercolor="#999999"
     borderopacity="1"
     inkscape:showpageshadow="0"
     inkscape:pageopacity="0"
     inkscape:pagecheckerboard="0"
     inkscape:deskcolor="#d1d1d1"
     inkscape:document-units="mm"
     showgrid="false"
     inkscape:zoom="2.025849"
     inkscape:cx="213.98435"
     inkscape:cy="195.72041"
     inkscape:window-width="1920"
     inkscape:window-height="991"
     inkscape:window-x="-9"
     inkscape:window-y="-9"
     inkscape:window-maximized="1"
     inkscape:current-layer="layer1"
     showguides="false"><inkscape:grid
       type="xygrid"
       id="grid132"
       originx="0"
       originy="0"
       spacingy="1"
       spacingx="1"
       units="mm"
       visible="false" /></sodipodi:namedview><defs
     id="defs2" /><g
     inkscape:label="Layer 1"
     inkscape:groupmode="layer"
     id="layer1"><path
       style="fill:#f9f9f9;fill-opacity:1;stroke:none;stroke-width:0.0962671;stroke-linecap:round;stroke-dasharray:none;stroke-opacity:1"
       d="M 34.900934,28.039584 H 28.378458 V 39.6875 H 29.978 V 29.64 h 4.922934 z"
       id="path301"
       sodipodi:nodetypes="ccccccc" /><path
       style="fill:#fafafa;fill-opacity:1;stroke:none;stroke-width:0.0962671;stroke-linecap:round;stroke-dasharray:none;stroke-opacity:1"
       d="M 34.900934,71.960416 H 28.378458 V 60.854166 H 29.978 V 70.526 h 4.922934 z"
       id="path301-3"
       sodipodi:nodetypes="ccccccc" /><path
       id="rect1879-9-7"
       style="display:inline;fill:#2ef7f7;stroke:#27baba;stroke-width:0;stroke-linecap:round;fill-opacity:1"
       d="m 12.443163,-76.297805 5.000269,1.18e-4 c 2.65642,0 4.795079,1.532268 4.79508,3.435246 l 1.27e-4,0.592119 c -10e-7,0.594681 -0.209049,1.152755 -0.57728,1.639545 -0.810101,1.070943 -2.391708,1.795472 -4.217996,1.795472 l -5.378558,-9.7e-5 c -1.456433,-0.649113 -2.4271293,-1.829334 -2.4271293,-3.184027 l -1.37e-5,-0.941606 c 0,-1.468892 1.141125,-2.73291 2.805501,-3.33677 z"
       transform="matrix(0.64883268,-0.76093111,-0.77163846,-0.63606139,0,0)" /><rect
       style="display:inline;fill:#fafafa;fill-opacity:1;stroke:none;stroke-width:0.10356;stroke-linecap:round;stroke-dasharray:none;stroke-opacity:1"
       id="rect1879"
       width="31.849655"
       height="8.3727913"
       x="68.382057"
       y="-11.487062"
       ry="3.8734169"
       transform="matrix(0.64883268,0.76093111,-0.77163846,0.63606139,0,0)"
       rx="5.0222578" /><path
       id="path1"
       style="fill:#fafafa;fill-opacity:1;stroke:#fafafa;stroke-width:0.0000000199986;stroke-linecap:round;stroke-dasharray:none;stroke-opacity:0"
       d="m 68.372507,27.396141 c -1.549848,0.04093 -3.251803,0.873078 -4.526338,2.367814 L 50.120908,45.86013 c -2.039256,2.391578 -2.188822,5.546712 -0.33538,7.074504 l 0.50953,0.42013 c 1.853443,1.527792 4.987188,0.832499 7.026444,-1.559079 L 71.046763,35.69951 c 2.039256,-2.391578 2.188822,-5.547228 0.33538,-7.07502 l -0.50953,-0.419613 c -0.695041,-0.572922 -1.570197,-0.833293 -2.500106,-0.808736 z m 0.183452,1.046448 c 0.614546,0.02943 1.180814,0.225327 1.639693,0.60358 l 0.45682,0.376722 c 1.468412,1.210412 1.263136,3.812398 -0.460438,5.833753 L 56.702936,51.07635 c -1.723573,2.021354 -4.293509,2.673889 -5.761923,1.463476 L 50.484194,52.163622 C 49.01578,50.953209 49.221057,48.351223 50.94463,46.329869 l 13.4891,-15.819706 c 1.184956,-1.389681 2.770226,-2.132329 4.122229,-2.067574 z" /></g></svg>
